<?xml version="1.0" encoding="UTF-8" standalone="no"?>
<!-- Created with Inkscape (http://www.inkscape.org/) -->

<svg
   xmlns:dc="http://purl.org/dc/elements/1.1/"
   xmlns:cc="http://creativecommons.org/ns#"
   xmlns:rdf="http://www.w3.org/1999/02/22-rdf-syntax-ns#"
   xmlns:svg="http://www.w3.org/2000/svg"
   xmlns="http://www.w3.org/2000/svg"
   xmlns:sodipodi="http://sodipodi.sourceforge.net/DTD/sodipodi-0.dtd"
   xmlns:inkscape="http://www.inkscape.org/namespaces/inkscape"
   width="447.76373"
   height="447.80273"
   id="svg5395"
   version="1.1"
   inkscape:version="0.48+devel_64bit r13443"
   viewBox="0 0 447.76373 447.80274"
   sodipodi:docname="big-bg-symbol.svg">
  <defs
     id="defs5397" />
  <sodipodi:namedview
     id="base"
     pagecolor="#ffffff"
     bordercolor="#666666"
     borderopacity="1.0"
     inkscape:pageopacity="0.0"
     inkscape:pageshadow="2"
     inkscape:zoom="0.35"
     inkscape:cx="-741.11815"
     inkscape:cy="-110.38434"
     inkscape:document-units="px"
     inkscape:current-layer="layer1"
     showgrid="false"
     fit-margin-top="0"
     fit-margin-left="0"
     fit-margin-right="0"
     fit-margin-bottom="0"
     inkscape:window-width="1920"
     inkscape:window-height="1033"
     inkscape:window-x="-4"
     inkscape:window-y="-4"
     inkscape:window-maximized="1" />
  <metadata
     id="metadata5400">
    <rdf:RDF>
      <cc:Work
         rdf:about="">
        <dc:format>image/svg+xml</dc:format>
        <dc:type
           rdf:resource="http://purl.org/dc/dcmitype/StillImage" />
        <dc:title></dc:title>
      </cc:Work>
    </rdf:RDF>
  </metadata>
  <g
     inkscape:label="Layer 1"
     inkscape:groupmode="layer"
     id="layer1"
     transform="translate(-670.40388,25.824903)">
    <path
       style="display:inline;opacity:1;fill:#182e39;fill-opacity:1;stroke:none;stroke-width:2.29999995;stroke-miterlimit:4;stroke-dasharray:none;stroke-opacity:1"
       d="m 894.21448,-25.824903 a 223.95396,223.95396 0 0 0 -191.19141,107.86133 75.000001,75.000001 0 0 1 4.6113,-1.41211 75.000001,75.000001 0 0 1 91.8574,53.033203 75.000001,75.000001 0 0 1 -4.7851,51.7129 l 102.86131,102.86133 c -15.1921,8.22732 -27.3166,20.6901 -35.2851,35.42774 L 759.33747,220.71416 a 75.000001,75.000001 0 0 1 -12.8789,4.79883 75.000001,75.000001 0 0 1 -76.0547,-23.375 223.95396,223.95396 0 0 0 219.88681,219.83986 75.000055,75.000001 75 0 1 -23.5567,-37.3652 75.000055,75.000001 75 0 1 53.0332,-91.85551 75.000055,75.000001 75 0 1 13.5489,-2.27539 l 37.6562,-140.54102 c 14.7215,9.04314 31.57642,13.31195 48.32422,12.84375 l -37.69332,140.67384 a 75.000055,75.000001 75 0 1 30.01952,42.33007 75.000055,75.000001 75 0 1 -1.4981,43.64066 223.95396,223.95396 0 0 0 108.043,-191.29887 223.95396,223.95396 0 0 0 -27.8711,-108.111333 75.000001,75.000001 0 0 1 -54.0605,57.847663 75.000001,75.000001 0 0 1 -81.16022,-30.01563 l -140.5683,37.66407 c 0.4706,-17.27029 -4.25991,-34.00198 -13.03911,-48.27149 L 942.14418,69.550099 a 75.000001,75.000001 0 0 1 55.2695,-66.5722624 75.000001,75.000001 0 0 1 4.45122,-0.95703 223.95396,223.95396 0 0 0 -107.65042,-27.8457096 z"
       id="path5376"
       inkscape:connector-curvature="0" />
  </g>
</svg>
