<?xml version="1.0" encoding="UTF-8" standalone="no"?>
<!-- Created with Inkscape (http://www.inkscape.org/) -->

<svg
   xmlns:dc="http://purl.org/dc/elements/1.1/"
   xmlns:cc="http://creativecommons.org/ns#"
   xmlns:rdf="http://www.w3.org/1999/02/22-rdf-syntax-ns#"
   xmlns:svg="http://www.w3.org/2000/svg"
   xmlns="http://www.w3.org/2000/svg"
   xmlns:sodipodi="http://sodipodi.sourceforge.net/DTD/sodipodi-0.dtd"
   xmlns:inkscape="http://www.inkscape.org/namespaces/inkscape"
   width="20.136709"
   height="20.26367"
   id="svg6166"
   version="1.1"
   inkscape:version="0.48+devel_64bit r13443"
   viewBox="0 0 20.136709 20.26367"
   sodipodi:docname="icon-search.svg">
  <defs
     id="defs6168" />
  <sodipodi:namedview
     id="base"
     pagecolor="#ffffff"
     bordercolor="#666666"
     borderopacity="1.0"
     inkscape:pageopacity="0.0"
     inkscape:pageshadow="2"
     inkscape:zoom="0.35"
     inkscape:cx="533.63978"
     inkscape:cy="-49.868161"
     inkscape:document-units="px"
     inkscape:current-layer="layer1"
     showgrid="false"
     fit-margin-top="0"
     fit-margin-left="0"
     fit-margin-right="0"
     fit-margin-bottom="0"
     inkscape:window-width="1920"
     inkscape:window-height="1033"
     inkscape:window-x="-4"
     inkscape:window-y="-4"
     inkscape:window-maximized="1" />
  <metadata
     id="metadata6171">
    <rdf:RDF>
      <cc:Work
         rdf:about="">
        <dc:format>image/svg+xml</dc:format>
        <dc:type
           rdf:resource="http://purl.org/dc/dcmitype/StillImage" />
        <dc:title></dc:title>
      </cc:Work>
    </rdf:RDF>
  </metadata>
  <g
     inkscape:label="Layer 1"
     inkscape:groupmode="layer"
     id="layer1"
     transform="translate(158.63978,-462.23036)">
    <path
       style="display:inline;opacity:1;fill:#ffffff;fill-opacity:1;stroke:none;stroke-width:2.29999995;stroke-miterlimit:4;stroke-dasharray:none;stroke-opacity:1"
       d="m -150.51479,462.23036 a 8.1250001,8.1250001 0 0 0 -8.125,8.125 8.1250001,8.1250001 0 0 0 8.125,8.125 8.1250001,8.1250001 0 0 0 4.24414,-1.20899 l 5.22265,5.22266 2.54492,-2.54492 -5.18554,-5.18555 a 8.1250001,8.1250001 0 0 0 1.29883,-4.4082 8.1250001,8.1250001 0 0 0 -8.125,-8.125 z m 0,1.96484 a 6.1607142,6.1607142 0 0 1 6.16015,6.16016 6.1607142,6.1607142 0 0 1 -6.16015,6.16015 6.1607142,6.1607142 0 0 1 -6.16211,-6.16015 6.1607142,6.1607142 0 0 1 6.16211,-6.16016 z"
       id="circle5302"
       inkscape:connector-curvature="0" />
  </g>
</svg>
