<?xml version="1.0" encoding="UTF-8" standalone="no"?>
<!-- Created with Inkscape (http://www.inkscape.org/) -->

<svg
   xmlns:dc="http://purl.org/dc/elements/1.1/"
   xmlns:cc="http://creativecommons.org/ns#"
   xmlns:rdf="http://www.w3.org/1999/02/22-rdf-syntax-ns#"
   xmlns:svg="http://www.w3.org/2000/svg"
   xmlns="http://www.w3.org/2000/svg"
   xmlns:sodipodi="http://sodipodi.sourceforge.net/DTD/sodipodi-0.dtd"
   xmlns:inkscape="http://www.inkscape.org/namespaces/inkscape"
   width="29.640465"
   height="29.640495"
   id="svg6043"
   version="1.1"
   inkscape:version="0.48+devel_64bit r13443"
   viewBox="0 0 29.640465 29.640496"
   sodipodi:docname="retroshare-symbol.svg">
  <defs
     id="defs6045" />
  <sodipodi:namedview
     id="base"
     pagecolor="#ffffff"
     bordercolor="#666666"
     borderopacity="1.0"
     inkscape:pageopacity="0.0"
     inkscape:pageshadow="2"
     inkscape:zoom="1.979899"
     inkscape:cx="-33.046274"
     inkscape:cy="-59.230287"
     inkscape:document-units="px"
     inkscape:current-layer="layer1"
     showgrid="false"
     fit-margin-top="0"
     fit-margin-left="0"
     fit-margin-right="0"
     fit-margin-bottom="0"
     inkscape:window-width="1920"
     inkscape:window-height="1033"
     inkscape:window-x="-4"
     inkscape:window-y="-4"
     inkscape:window-maximized="1" />
  <metadata
     id="metadata6048">
    <rdf:RDF>
      <cc:Work
         rdf:about="">
        <dc:format>image/svg+xml</dc:format>
        <dc:type
           rdf:resource="http://purl.org/dc/dcmitype/StillImage" />
        <dc:title></dc:title>
      </cc:Work>
    </rdf:RDF>
  </metadata>
  <g
     inkscape:label="Layer 1"
     inkscape:groupmode="layer"
     id="layer1"
     transform="translate(709.10596,-871.82766)">
    <g
       id="g5360"
       style="display:inline;opacity:1;fill:#5eb9e5;fill-opacity:1;stroke:none"
       transform="matrix(0.06739874,0,0,0.06739874,-746.5054,833.60134)">
      <path
         sodipodi:nodetypes="cccccccccccccccccccccc"
         inkscape:connector-curvature="0"
         id="path2987-4"
         d="m 955.03125,606.81055 -250.71094,67.17773 c 8.77918,14.26951 13.5096,31.0012 13.03907,48.27149 l 166.95898,-44.73633 -2.75781,10.29101 c 21.6298,-2.48105 32.62318,-4.1559 53.7207,-7.29492 z m -288.38086,77.27148 -85.04883,22.78906 183.53321,183.53321 c 7.96852,-14.73764 20.09306,-27.20042 35.28515,-35.42774 l -122.22461,-122.22265 17.53711,-4.69922 c -11.91885,-18.67603 -18.62489,-29.76837 -29.08203,-43.97266 z m 207.17383,32.60352 -44.73438,166.96093 -15.53515,-15.5332 c -12.23907,19.72092 -16.26777,25.77481 -26.20703,44.50391 l 67.62304,67.62304 11.20703,-41.82421 55.97071,-208.88672 c -16.74777,0.4682 -33.60275,-3.80061 -48.32422,-12.84375 z"
         style="color:#000000;font-style:normal;font-variant:normal;font-weight:normal;font-stretch:normal;font-size:medium;line-height:normal;font-family:sans-serif;text-indent:0;text-align:start;text-decoration:none;text-decoration-line:none;text-decoration-style:solid;text-decoration-color:#000000;letter-spacing:normal;word-spacing:normal;text-transform:none;direction:ltr;block-progression:tb;writing-mode:lr-tb;baseline-shift:baseline;text-anchor:start;clip-rule:nonzero;display:inline;overflow:visible;visibility:visible;opacity:1;isolation:auto;color-interpolation:sRGB;color-interpolation-filters:linearRGB;fill:#5eb9e5;fill-opacity:1;fill-rule:nonzero;stroke:none;stroke-width:60.50111771;stroke-linecap:butt;stroke-linejoin:miter;stroke-miterlimit:4;stroke-dasharray:none;stroke-dashoffset:0;stroke-opacity:1;marker:none;color-rendering:auto;image-rendering:auto;shape-rendering:auto;text-rendering:auto;enable-background:accumulate" />
      <ellipse
         ry="75.000053"
         rx="75"
         cy="-1118.123"
         cx="-572.13373"
         transform="matrix(-0.96592583,0.25881904,-0.25881904,-0.96592583,0,0)"
         id="path2985-8"
         style="color:#000000;display:inline;overflow:visible;visibility:visible;opacity:1;fill:#5eb9e5;fill-opacity:1;fill-rule:evenodd;stroke:none;stroke-width:1.25;marker:none;enable-background:accumulate"
         d="m -497.13373,-1118.123 a 75,75.000053 0 0 1 -75,75 75,75.000053 0 0 1 -75,-75 75,75.000053 0 0 1 75,-75.0001 75,75.000053 0 0 1 75,75.0001 z" />
      <circle
         r="75"
         cy="-858.315"
         cx="-722.13373"
         transform="matrix(-0.96592583,0.25881904,-0.25881904,-0.96592583,0,0)"
         id="path2985-1-2"
         style="color:#000000;display:inline;overflow:visible;visibility:visible;opacity:1;fill:#5eb9e5;fill-opacity:1;fill-rule:evenodd;stroke:none;stroke-width:1.25;marker:none;enable-background:accumulate"
         d="m -647.13373,-858.315 a 75,75 0 0 1 -75,75 75,75 0 0 1 -75,-75 75,75 0 0 1 75,-75 75,75 0 0 1 75,75 z" />
      <circle
         r="75"
         cy="-858.315"
         cx="-422.13373"
         transform="matrix(-0.96592583,0.25881904,-0.25881904,-0.96592583,0,0)"
         id="path2985-7-4"
         style="color:#000000;display:inline;overflow:visible;visibility:visible;opacity:1;fill:#5eb9e5;fill-opacity:1;fill-rule:evenodd;stroke:none;stroke-width:1.25;marker:none;enable-background:accumulate"
         d="m -347.13373,-858.315 a 75,75 0 0 1 -75,75 75,75 0 0 1 -75,-75 75,75 0 0 1 75,-75 75,75 0 0 1 75,75 z" />
    </g>
  </g>
</svg>
