<?xml version="1.0" encoding="UTF-8" standalone="no"?>
<!-- Created with Inkscape (http://www.inkscape.org/) -->

<svg
   xmlns:dc="http://purl.org/dc/elements/1.1/"
   xmlns:cc="http://creativecommons.org/ns#"
   xmlns:rdf="http://www.w3.org/1999/02/22-rdf-syntax-ns#"
   xmlns:svg="http://www.w3.org/2000/svg"
   xmlns="http://www.w3.org/2000/svg"
   xmlns:sodipodi="http://sodipodi.sourceforge.net/DTD/sodipodi-0.dtd"
   xmlns:inkscape="http://www.inkscape.org/namespaces/inkscape"
   width="30"
   height="30"
   id="svg6915"
   version="1.1"
   inkscape:version="0.48+devel_64bit r13443"
   viewBox="0 0 30 30"
   sodipodi:docname="icon-talk.svg">
  <defs
     id="defs6917" />
  <sodipodi:namedview
     id="base"
     pagecolor="#ffffff"
     bordercolor="#666666"
     borderopacity="1.0"
     inkscape:pageopacity="0.0"
     inkscape:pageshadow="2"
     inkscape:zoom="0.35"
     inkscape:cx="-832.85714"
     inkscape:cy="577.8571"
     inkscape:document-units="px"
     inkscape:current-layer="layer1"
     showgrid="false"
     fit-margin-top="0"
     fit-margin-left="0"
     fit-margin-right="0"
     fit-margin-bottom="0"
     inkscape:window-width="1920"
     inkscape:window-height="1033"
     inkscape:window-x="-4"
     inkscape:window-y="-4"
     inkscape:window-maximized="1" />
  <metadata
     id="metadata6920">
    <rdf:RDF>
      <cc:Work
         rdf:about="">
        <dc:format>image/svg+xml</dc:format>
        <dc:type
           rdf:resource="http://purl.org/dc/dcmitype/StillImage" />
        <dc:title></dc:title>
      </cc:Work>
    </rdf:RDF>
  </metadata>
  <g
     inkscape:label="Layer 1"
     inkscape:groupmode="layer"
     id="layer1"
     transform="translate(-762.14287,-1080.2193)">
    <path
       style="color:#000000;display:inline;overflow:visible;visibility:visible;fill:#ffffff;fill-opacity:1;fill-rule:evenodd;stroke:none;stroke-width:5;marker:none;enable-background:accumulate"
       d="m 777.14286,1080.2193 c -8.2843,0 -15,5.5965 -15,12.5 0,6.9036 6.7157,12.5 15,12.5 1.4757,0 2.9029,-0.2003 4.25,-0.5312 2.5546,2.742 6.0595,5.0547 10.75,5.5312 -2.8649,-3.8468 -4.2338,-5.7412 -4.9687,-8.2187 3.0391,-2.2876 4.9687,-5.5996 4.9687,-9.2813 0,-6.9035 -6.7157,-12.5 -15,-12.5 z m -6,12.5 c 1.3807,0 2.5,1.1193 2.5,2.5 0,1.3808 -1.1193,2.5 -2.5,2.5 -1.3807,0 -2.5,-1.1192 -2.5,-2.5 0,-1.3807 1.1193,-2.5 2.5,-2.5 z m 6,0 c 1.3807,0 2.5,1.1193 2.5,2.5 0,1.3808 -1.1193,2.5 -2.5,2.5 -1.3807,0 -2.5,-1.1192 -2.5,-2.5 0,-1.3807 1.1193,-2.5 2.5,-2.5 z m 6,0 c 1.3807,0 2.5,1.1193 2.5,2.5 0,1.3808 -1.1193,2.5 -2.5,2.5 -1.3807,0 -2.5,-1.1192 -2.5,-2.5 0,-1.3807 1.1193,-2.5 2.5,-2.5 z"
       id="path6821"
       inkscape:connector-curvature="0" />
  </g>
</svg>
