<?xml version="1.0" encoding="UTF-8" standalone="no"?>
<!-- Created with Inkscape (http://www.inkscape.org/) -->

<svg
   xmlns:dc="http://purl.org/dc/elements/1.1/"
   xmlns:cc="http://creativecommons.org/ns#"
   xmlns:rdf="http://www.w3.org/1999/02/22-rdf-syntax-ns#"
   xmlns:svg="http://www.w3.org/2000/svg"
   xmlns="http://www.w3.org/2000/svg"
   xmlns:sodipodi="http://sodipodi.sourceforge.net/DTD/sodipodi-0.dtd"
   xmlns:inkscape="http://www.inkscape.org/namespaces/inkscape"
   width="30.064999"
   height="30.324989"
   id="svg6012"
   version="1.1"
   inkscape:version="0.48+devel_64bit r13443"
   viewBox="0 0 30.064999 30.32499"
   sodipodi:docname="icon-settings.svg">
  <defs
     id="defs6014" />
  <sodipodi:namedview
     id="base"
     pagecolor="#ffffff"
     bordercolor="#666666"
     borderopacity="1.0"
     inkscape:pageopacity="0.0"
     inkscape:pageshadow="2"
     inkscape:zoom="2.8"
     inkscape:cx="44.618744"
     inkscape:cy="-52.834641"
     inkscape:document-units="px"
     inkscape:current-layer="layer1"
     showgrid="false"
     fit-margin-top="0"
     fit-margin-left="0"
     fit-margin-right="0"
     fit-margin-bottom="0"
     inkscape:window-width="1920"
     inkscape:window-height="1033"
     inkscape:window-x="-4"
     inkscape:window-y="-4"
     inkscape:window-maximized="1" />
  <metadata
     id="metadata6017">
    <rdf:RDF>
      <cc:Work
         rdf:about="">
        <dc:format>image/svg+xml</dc:format>
        <dc:type
           rdf:resource="http://purl.org/dc/dcmitype/StillImage" />
        <dc:title></dc:title>
      </cc:Work>
    </rdf:RDF>
  </metadata>
  <g
     inkscape:label="Layer 1"
     inkscape:groupmode="layer"
     id="layer1"
     transform="translate(-384.96749,102.80032)">
    <g
       transform="translate(-975.31572,-365.98001)"
       id="g5296"
       style="display:inline;opacity:1;stroke:none">
      <path
         sodipodi:nodetypes="ccccccccccccccccccccccccccccccccccc"
         inkscape:connector-curvature="0"
         id="path5274"
         d="m 1369.2305,263.17969 -2.2364,0.59961 -0.1601,2.27929 c -0.6738,0.45178 -0.7127,0.50076 -1.7344,1.21094 l -2.1562,-0.68555 -1.4082,2.00782 1.3984,1.73047 c -0.2337,1.02435 -0.3151,1.25948 -0.582,2.16992 l -2.0684,0.875 0.1973,2.28711 2.2031,0.52734 c 0.4275,0.81583 0.5413,1.12297 0.9258,1.99024 l -1.1133,1.91992 1.8281,1.83203 1.9199,-1.11524 c 0.9673,0.42445 1.1349,0.49028 1.9922,0.92774 1.4991,-0.5346 1.5807,-0.56558 2.2048,-0.79297 0.095,-0.32346 0.1963,-0.7051 0.2813,-1.04883 l -1.5665,-1.9375 2.379,-3.39648 2.4082,0.76562 c 0.2834,-0.20072 0.5954,-0.41814 0.8086,-0.5664 l 0.1777,-2.53516 3.0156,-0.80664 0.8164,-0.21875 c 0.2246,0.31115 0.2616,0.35811 0.3924,0.53716 l 1.6622,-1.48828 -1,-2.14453 -2.3106,0.21093 c -0.6338,-0.61879 -0.7093,-0.70649 -1.3965,-1.39648 l 0.2129,-2.3125 -2.1426,-1.00195 -1.4902,1.6621 c -0.7875,-0.0664 -0.8415,-0.0671 -2.2617,-0.19921 z"
         style="opacity:0.994;fill:#5eb9e5;fill-opacity:1;stroke:none;stroke-width:0.30010524;stroke-opacity:1" />
      <path
         style="fill:#5eb9e5;fill-opacity:1;stroke:none;stroke-width:0.30010524;stroke-opacity:1"
         d="m 1378.3381,272.54589 -2.2376,0.5996 -0.1602,2.27899 c -0.6738,0.45178 -0.7113,0.50138 -1.733,1.21156 l -2.1576,-0.68558 -1.4069,2.00725 1.3987,1.73047 c -0.2337,1.02435 -0.315,1.26005 -0.5819,2.17049 l -2.0702,0.875 0.1989,2.28654 2.2016,0.52735 c 0.4275,0.81583 0.5427,1.12352 0.9272,1.99079 l -1.1141,1.91993 1.8283,1.83146 1.9205,-1.11439 c 0.9673,0.42445 1.1336,0.4911 1.9909,0.92856 l 0.5254,2.20193 2.2864,0.19884 0.877,-2.06798 c 1.1504,-0.33583 1.298,-0.36847 2.1705,-0.58046 l 1.7305,1.39841 2.0072,-1.40386 -0.6848,-2.16009 c 0.6478,-0.93032 0.7361,-1.01721 1.214,-1.73104 l 2.2797,-0.1582 0.5996,-2.23772 -1.8867,-1.20117 c -0.1206,-1.16464 -0.135,-1.30376 -0.1973,-2.26033 l 1.6606,-1.48828 -0.9989,-2.14397 -2.3115,0.21094 c -0.6338,-0.61879 -0.7085,-0.70706 -1.3957,-1.39705 l 0.2132,-2.31137 -2.1439,-1.00169 -1.4903,1.66083 c -0.7875,-0.0664 -0.8402,-0.0668 -2.2604,-0.19888 z m 1.4893,7.68906 c 1.1179,-0.0407 2.1516,0.59166 2.6243,1.60551 0.65,1.39363 0.047,3.05034 -1.3469,3.69995 -1.3945,0.6496 -3.0515,0.0451 -3.6999,-1.35002 -0.6479,-1.39283 -0.045,-3.04719 1.3469,-3.69679 0.3377,-0.1573 0.7033,-0.24525 1.0756,-0.25865 z"
         id="path5276"
         inkscape:connector-curvature="0"
         sodipodi:nodetypes="ccccccccccccccccccccccccccccccccccccccccccc" />
    </g>
  </g>
</svg>
